# xmcd
#
# Track frame offsets:
#	150
#	16558
#	32529
#	49774
#	66061
#	81468
#	97016
#	122084
#	144905
#	156454
#	173997
#	194663
#
# Disc length: 2884 seconds
#
# Revision: 0
# Processed by: cddbd v1.5.2PL0 Copyright (c) Steve Scherf et al.
# Submitted via: audiograbber 1.83.01
#
DISCID=a00b420c
DTITLE=Josh_Turner - Everything_is_Fine
DYEAR=2007
DGENRE=Country
TTITLE0=Everything Is Fine
TTITLE1=Firecracker
TTITLE2=Another Try
TTITLE3=So Not My Baby
TTITLE4=Trailerhood
TTITLE5=Baby I Go Crazy
TTITLE6=Nowhere Fast
TTITLE7=The Longer The Waiting (The Sweeter The Kiss)
TTITLE8=One Woman Man
TTITLE9=Soulmate
TTITLE10=The Way He Was Raised
TTITLE11=South Carolina Low Country
EXTD=
EXTT0=
EXTT1=
EXTT2=
EXTT3=
EXTT4=
EXTT5=
EXTT6=
EXTT7=
EXTT8=
EXTT9=
EXTT10=
EXTT11=
PLAYORDER=
